RBDS026runT25_grf
version=1
nRows=18
nColumns=19
inDegrees=no
endheader
time	ground_force_r_vx	ground_force_r_vy	ground_force_r_vz	ground_force_r_px	ground_force_r_py	ground_force_r_pz	ground_force_r_mx	ground_force_r_my	ground_force_r_mz	ground_force_l_vx	ground_force_l_vy	ground_force_l_vz	ground_force_l_px	ground_force_l_py	ground_force_l_pz	ground_force_l_mx	ground_force_l_my	ground_force_l_mz
     22.49800000	      0.00000000	      0.00000000	      0.00000000	      0.00000000	      0.00000000	      0.00000000	      0.00000000	      0.00000000	      0.00000000	    118.60787396	   1060.27881140	     35.68630331	      1.98022942	      0.00000000	      0.95414110	     -0.00000000	      9.42485362	     -0.00000000
     22.49900000	      0.00000000	      0.00000000	      0.00000000	      0.00000000	      0.00000000	      0.00000000	      0.00000000	      0.00000000	      0.00000000	    120.92553132	   1046.50208545	     34.15390857	      1.97818511	      0.00000000	      0.95423942	     -0.00000000	      9.29847814	     -0.00000000
     22.50000000	      0.00000000	      0.00000000	      0.00000000	      0.00000000	      0.00000000	      0.00000000	      0.00000000	      0.00000000	      0.00000000	    123.24318869	   1032.72535950	     32.62151383	      1.97614079	      0.00000000	      0.95433775	     -0.00000000	      9.17210266	     -0.00000000
     22.50100000	      0.00000000	      0.00000000	      0.00000000	      0.00000000	      0.00000000	      0.00000000	      0.00000000	      0.00000000	      0.00000000	    125.31931746	   1018.93182352	     31.14048532	      1.97409464	      0.00000000	      0.95444931	     -0.00000000	      9.04116536	     -0.00000000
     22.50200000	      0.00000000	      0.00000000	      0.00000000	      0.00000000	      0.00000000	      0.00000000	      0.00000000	      0.00000000	      0.00000000	    127.39544623	   1005.13828755	     29.65945681	      1.97204849	      0.00000000	      0.95456086	     -0.00000000	      8.91022806	     -0.00000000
     22.50300000	      0.00000000	      0.00000000	      0.00000000	      0.00000000	      0.00000000	      0.00000000	      0.00000000	      0.00000000	      0.00000000	    129.47157501	    991.34475157	     28.17842831	      1.97000233	      0.00000000	      0.95467242	     -0.00000000	      8.77929076	     -0.00000000
     22.50400000	      0.00000000	      0.00000000	      0.00000000	      0.00000000	      0.00000000	      0.00000000	      0.00000000	      0.00000000	      0.00000000	    131.36396649	    977.55440774	     26.74620353	      1.96796060	      0.00000000	      0.95479152	     -0.00000000	      8.64576390	     -0.00000000
     22.50500000	      0.00000000	      0.00000000	      0.00000000	      0.00000000	      0.00000000	      0.00000000	      0.00000000	      0.00000000	      0.00000000	    133.16448932	    963.76565997	     25.33838062	      1.96592107	      0.00000000	      0.95491440	     -0.00000000	      8.51094226	     -0.00000000
     22.50600000	      0.00000000	      0.00000000	      0.00000000	      0.00000000	      0.00000000	      0.00000000	      0.00000000	      0.00000000	      0.00000000	    134.96501215	    949.97691220	     23.93055772	      1.96388154	      0.00000000	      0.95503727	     -0.00000000	      8.37612062	     -0.00000000
     22.50700000	      0.00000000	      0.00000000	      0.00000000	      0.00000000	      0.00000000	      0.00000000	      0.00000000	      0.00000000	      0.00000000	    136.66387576	    936.19667358	     22.55369048	      1.96184692	      0.00000000	      0.95516325	     -0.00000000	      8.24025447	     -0.00000000
     22.50800000	      0.00000000	      0.00000000	      0.00000000	      0.00000000	      0.00000000	      0.00000000	      0.00000000	      0.00000000	      0.00000000	    138.15942093	    922.43345327	     21.23873456	      1.95982212	      0.00000000	      0.95529545	     -0.00000000	      8.10229932	     -0.00000000
     22.50900000	      0.00000000	      0.00000000	      0.00000000	      0.00000000	      0.00000000	      0.00000000	      0.00000000	      0.00000000	      0.00000000	    139.65496610	    908.67023295	     19.92377864	      1.95779732	      0.00000000	      0.95542765	     -0.00000000	      7.96434417	     -0.00000000
     22.51000000	      0.00000000	      0.00000000	      0.00000000	      0.00000000	      0.00000000	      0.00000000	      0.00000000	      0.00000000	      0.00000000	    141.15051127	    894.90701264	     18.60882273	      1.95577251	      0.00000000	      0.95555985	     -0.00000000	      7.82638903	     -0.00000000
     22.51100000	      0.00000000	      0.00000000	      0.00000000	      0.00000000	      0.00000000	      0.00000000	      0.00000000	      0.00000000	      0.00000000	    142.31742280	    881.19037763	     17.40367210	      1.95376978	      0.00000000	      0.95569935	     -0.00000000	      7.68611248	     -0.00000000
     22.51200000	      0.00000000	      0.00000000	      0.00000000	      0.00000000	      0.00000000	      0.00000000	      0.00000000	      0.00000000	      0.00000000	    143.48433433	    867.47374263	     16.19852148	      1.95176705	      0.00000000	      0.95583885	     -0.00000000	      7.54583593	     -0.00000000
     22.51300000	      0.00000000	      0.00000000	      0.00000000	      0.00000000	      0.00000000	      0.00000000	      0.00000000	      0.00000000	      0.00000000	    144.65124587	    853.75710762	     14.99337085	      1.94976432	      0.00000000	      0.95597835	     -0.00000000	      7.40555938	     -0.00000000
     22.51400000	      0.00000000	      0.00000000	      0.00000000	      0.00000000	      0.00000000	      0.00000000	      0.00000000	      0.00000000	      0.00000000	    145.58762205	    840.08641749	     13.87061035	      1.94778046	      0.00000000	      0.95612142	     -0.00000000	      7.26430948	     -0.00000000
     22.51500000	      0.00000000	      0.00000000	      0.00000000	      0.00000000	      0.00000000	      0.00000000	      0.00000000	      0.00000000	      0.00000000	    146.40873056	    826.43869979	     12.78904491	      1.94580604	      0.00000000	      0.95626626	     -0.00000000	      7.12257290	     -0.00000000
